# xmcd
#
# Track frame offsets: 
#        150
#        15314
#        36033
#        52556
#        72547
#
# Disc length: 1219 seconds
#
# Revision: 0
# Processed by: cddbd v1.5.2PL0 Copyright (c) Steve Scherf et al.
# Submitted via: ExactAudioCopy v0.99pb4
#
DISCID=3104c105
DTITLE=서인영 - Lov-Elly
DYEAR=2010
DGENRE=Ballad
TTITLE0=잘가요 로맨스
TTITLE1=사랑이라 쓰고 아픔이라 부른다
TTITLE2=사랑하면 안되나요
TTITLE3=가르쳐줘요
TTITLE4=애인있어요
EXTD=
EXTT0=
EXTT1=
EXTT2=
EXTT3=
EXTT4=
PLAYORDER=
